<?xml version="1.0" encoding="utf-8"?>
<!-- Generator: Adobe Illustrator 13.0.1, SVG Export Plug-In . SVG Version: 6.00 Build 14948)  -->
<!DOCTYPE svg PUBLIC "-//W3C//DTD SVG 1.1//EN" "http://www.w3.org/Graphics/SVG/1.1/DTD/svg11.dtd">
<svg version="1.1" id="圖層_1" xmlns="http://www.w3.org/2000/svg" xmlns:xlink="http://www.w3.org/1999/xlink" x="0px" y="0px"
	 width="95.688px" height="18.5px" viewBox="-0.592 -0.566 95.688 18.5" enable-background="new -0.592 -0.566 95.688 18.5"
	 xml:space="preserve">
<g>
	<path fill="#9D2133" d="M0,8.665c0,3.56,2.37,6.613,5.729,7.89c1.397,0.477,2.933,0.752,4.559,0.752
		c1.607,0,3.141-0.275,4.522-0.74h0.009c3.381-1.273,5.759-4.342,5.759-7.9v-0.02c0-3.581-2.378-6.632-5.759-7.897H14.81
		C13.429,0.268,11.896,0,10.288,0C8.662,0,7.127,0.268,5.729,0.748C2.37,2.025,0,5.076,0,8.646V8.665z"/>
	<path fill="#FFFFFF" d="M9.323,9.417c-2.295,0.357-4.072,2.279-4.213,4.638l1.856,0.016c0.085-1.416,1.067-2.582,2.397-2.947v3.316
		h1.854v-3.316c1.317,0.365,2.313,1.531,2.393,2.947l1.852-0.016c-0.14-2.357-1.918-4.279-4.21-4.638V7.89
		c2.292-0.359,4.07-2.276,4.21-4.624L13.61,3.25c-0.08,1.408-1.075,2.57-2.393,2.927V2.861H9.364v3.313
		C8.034,5.82,7.052,4.658,6.967,3.25L5.11,3.266C5.251,5.613,7.028,7.53,9.323,7.89V9.417z"/>
	<path fill="#07224D" d="M38.958,3.266v1.508h3.881v9.665h3.489V4.773c0,0,2.667-0.008,2.728-0.008c1.57,0.014,1.667-1.5,1.667-1.5
		L38.958,3.266L38.958,3.266z"/>
	<path fill="#07224D" d="M35.823,3.234c-1.295,0.033-1.831,0.658-2.181,1.318l-2.835,6.062H30.77l-3.4-7.38h-3.502l0.006,11.192
		h1.945V6.519l3.789,7.908h1.364l3.679-7.882v7.882h3.006l0,0V3.234H35.823z"/>
	<path fill="#07224D" d="M59.878,9.128c1.563-0.396,2.521-1.496,2.543-2.789c0-1.894-1.725-3.072-4.934-3.072h-5.795v11.161h3.396
		l0.015-9.647h1.631c1.937,0,2.414,0.633,2.468,1.506c0.066,0.729-0.801,1.604-1.795,1.79l0.016,0.014
		c-0.299,0.076-0.766,0.181-1.334,0.236c-0.016,0-0.096,0.021-0.036,0.127c1.021,1.814,3.381,5.068,3.381,5.068
		c0.461,0.453,0.651,0.906,1.979,0.918l2.287-0.012C63.701,14.427,61.177,11.329,59.878,9.128"/>
	<path fill="#07224D" d="M84.955,6.082c0,0-0.346-1.391-0.895-2.182c0,0-0.586,1.188-1.63,2.182H84.955z M90.142,4.395h-1.387V5.24
		h1.387V4.395z M89.996,13.427c0.236-0.308,0.483-0.65,0.729-1.054c-0.467-1.405-0.582-3.813-0.582-6.46h-4.273L85.66,6.102v0.636
		h-1.312v1.439h1.305v0.635h-1.305v2.289c0.207-0.681,0.515-1.494,0.593-1.769c0-0.055,0.046-0.098,0.098-0.098
		c0.029,0,0.051,0.006,0.078,0.039l1.055,0.625h3.798v0.625h-1.25v1.125h1.25v0.625h-1.25v1.152L89.996,13.427L89.996,13.427z
		 M91.104,13.255c-0.957,1.021-1.89,1.691-2.437,1.855c-0.014,0-0.105-0.039-0.105-0.113c0-0.057,0.111-0.125,0.111-0.125
		c0.178-0.184,0.468-0.453,0.791-0.817H85.83v-0.627h1.228l0.009-1.152l-1.242,0.008V11.65h1.242v-1.125h-1.168
		c-0.438,0.555-1.146,1.377-1.523,1.699v0.596c1.151-0.043,1.694-0.043,1.937-0.049c0.094,0,0.106,0.106,0.042,0.145
		c-3.227,1.551-4.445,1.961-4.445,1.961s-0.221,0.099-0.283-0.114C81.6,14.658,81.018,13.266,81,13.186
		c-0.033-0.107-0.027-0.183,0.1-0.211c0.564-0.029,1.066-0.049,1.514-0.08l0.006-0.955l-0.709,0.469
		c-0.013,0.019-0.031,0.019-0.059,0.019c-0.046,0-0.083-0.046-0.083-0.091c-0.08-0.393-0.384-1.928-0.729-2.707
		c0-0.004-0.004-0.021-0.004-0.047c0-0.041,0.039-0.092,0.092-0.092c0.018,0,0.029,0.006,0.049,0.014
		c0.136,0.037,0.887,0.281,1.443,1.007V8.812h-1.533V8.177h1.533v-1.44H81.73c-0.335,0.262-0.589,0.412-0.674,0.469
		c-0.021,0.021-0.041,0.027-0.081,0.027c-0.039,0-0.085-0.041-0.085-0.092c0-0.021,0.02-0.052,0.038-0.064
		c1.13-1.64,1.491-4.46,1.491-4.46l1.944,0.451c-0.077,0.313-0.059,0.248-0.178,0.539c0.422,0.16,1.946,0.885,1.995,1.641h0.835V4.4
		h-1.302V3.746h1.302V2.709h1.745v1.037h1.402c0.006-0.336,0.016-0.688,0.016-1.037h1.55c0,0-0.015,1.104,0.013,2.539h1.031
		c-0.234-1.049-0.916-2.039-0.928-2.051c-0.029-0.047-0.008-0.174,0.361-0.029c0.594,0.242,1.317,0.683,1.681,1.09
		c0.173,0.162,0.147,0.285,0.026,0.41c-0.385,0.396-0.603,0.58-0.603,0.58h0.522v0.666h-2.09c0.01,0.956-0.031,2.77,0.111,4.12
		c0.35-0.949,0.659-2.065,0.861-3.375c0.021-0.154,0.091-0.145,0.128-0.145c0.008,0,1.362,0.44,1.444,0.481
		c0.127,0.037,0.075,0.191,0.075,0.191c-0.362,1.754-1.179,3.35-2.1,4.637c0.407,1.203,0.767,1.461,1.14,0.828
		c0.195-0.279,0.553-1.191,0.553-1.191c0.017-0.041,0.017-0.061,0.055-0.061c0.053,0,0.061,0.061,0.061,0.061
		c0.397,3.779-1.348,3.41-1.348,3.41C92.085,14.872,91.475,13.948,91.104,13.255z"/>
	<path fill="#07224D" d="M88.673,9.358h-2.611V6.515h3.611v1.899C89.673,8.415,89.768,9.358,88.673,9.358z M88.164,7.142h-0.625
		v1.555h0.625V7.142z"/>
	<path fill="#07224D" d="M71.759,9.056c0.73-0.449,1.279-0.914,1.796-1.914h1.603c0.465,0.762,0.84,1.477,1.272,1.914h-0.57h-0.392
		h-2.592l0,0H71.759z M73.039,4.709h2.453v1.549h-2.453V4.709z M75.537,11.272h-2.658V9.784h2.658V11.272z M75.537,12.007
		l1.254-0.006c0.391,0,0.715-0.453,0.715-0.842c0-0.381,0-1.422,0-1.422c0.302,0.189,0.574,0.318,0.77,0.385
		c0.184,0.072,0.275,0.142,0.323,0.062c0.073-0.103,0.485-0.752,0.716-1C79.432,9.06,79.541,8.969,79.6,8.91
		c0.13-0.115,0.028-0.149,0.028-0.149c-1.438-0.218-2.525-0.777-3.241-1.617h2.812V6.258h-1.812V4.709h1.657V3.863h-1.657V2.668
		h-1.896v1.195h-2.453V2.668h-1.896v1.195h-1.372v0.846h1.372v1.549h-1.776v0.885h2.237l-0.286,0.557
		c-0.459,0.818-1.384,1.684-2.516,2.582c-0.012-0.252-0.063-0.818-0.068-0.863c-0.008-0.084-0.063-0.127-0.063-0.127
		S68.55,9.236,68.5,9.221c-0.063-0.021-0.076,0.034-0.076,0.034c-0.35,1.642-1.262,2.55-2.596,3.72c-0.111,0.067,0,0.166-0.039,0.09
		c0,0,1.037,1.727,1.065,1.783c0.035,0.055,0.097,0.037,0.097,0.037c0.684-0.802,1.123-1.457,1.37-2.064
		c0.253-0.596,0.413-1.359,0.481-2.311c0.73-0.229,1.611-0.683,2.082-0.882v3.718c0,0.604,0.242,0.985,0.816,1.225
		c0.577,0.234,1.395,0.359,3.021,0.359c1.233,0,2.12-0.097,2.653-0.271c0.537-0.166,0.774-0.326,1-0.588
		c0.554-0.635,0.41-2.393,0.41-2.393c-0.631,0.713-1.045,1.309-1.767,1.646c-0.485,0.232-1.233,0.301-2.146,0.301
		c-0.899,0-1.469-0.014-1.701-0.078c-0.248-0.061-0.295-0.233-0.295-0.518v-1.021L75.537,12.007L75.537,12.007z"/>
	<path fill="#07224D" d="M66.107,2.977c0.104-0.062,0.395,0.012,0.65,0.045c0.265,0.037,1.502,0.338,1.837,0.563
		c0.321,0.228,0.745,0.416,0.417,0.908c-0.338,0.498-0.631,0.771-0.813,0.889c-0.195,0.121-0.404,0.063-0.617-0.352
		c-0.203-0.391-0.344-0.693-0.58-0.949c-0.236-0.27-0.828-0.895-0.895-0.977S66.107,2.977,66.107,2.977z"/>
	<path fill="#07224D" d="M66.042,6.219c0.117-0.056,0.414,0.008,0.691,0.055c0.271,0.041,1.561,0.337,1.896,0.554
		c0.344,0.228,0.783,0.406,0.44,0.93c-0.346,0.507-0.667,0.785-0.856,0.908c-0.195,0.125-0.42,0.066-0.633-0.34
		c-0.205-0.42-0.359-0.717-0.6-0.984c-0.244-0.278-0.867-0.896-0.941-0.979C65.979,6.281,66.042,6.219,66.042,6.219z"/>
</g>
</svg>
